<svg width="97" height="18" viewBox="0 0 97 18" fill="none" xmlns="http://www.w3.org/2000/svg">
<circle cx="0.798817" cy="9.86391" r="0.798817" fill="#4276D5" fill-opacity="0.8"/>
<circle cx="10.929" cy="9.86391" r="1.33136" fill="#4276D5" fill-opacity="0.8"/>
<circle cx="22.1243" cy="9.8639" r="1.86391" fill="#4276D5" fill-opacity="0.8"/>
<circle cx="96.2012" cy="10.1361" r="0.798817" transform="rotate(180 96.2012 10.1361)" fill="#4276D5" fill-opacity="0.8"/>
<circle cx="86.071" cy="10.1361" r="1.33136" transform="rotate(180 86.071 10.1361)" fill="#4276D5" fill-opacity="0.8"/>
<circle cx="74.8757" cy="10.1361" r="1.86391" transform="rotate(180 74.8757 10.1361)" fill="#4276D5" fill-opacity="0.8"/>
<path d="M39.5908 9L38 12.8571H38.8873L41.1092 9.84L47.667 10.3286L45.0306 18H45.9586L51.7033 10.2857H51.9296L55.8519 10.2891C55.9535 10.2763 56.1383 10.2497 56.3778 10.206C56.7755 10.1331 57.1741 10.0423 57.5426 9.93C58.4697 9.64886 59 9.29571 59 9C59 8.70429 58.4697 8.35114 57.5417 8.07C57.1741 7.95857 56.7764 7.86686 56.3778 7.794C56.1391 7.75114 55.9535 7.72371 55.9067 7.71429H51.7033L45.9586 0H45.0306L47.667 7.67143L41.1092 8.16L38.8873 5.14286H38L39.5908 9Z" fill="#5E88BF"/>
</svg>
